<svg width="128" height="128" viewBox="0 0 128 128" xmlns="http://www.w3.org/2000/svg">
  <defs>
    <linearGradient id="shieldGradient" x1="0%" y1="0%" x2="100%" y2="100%">
      <stop offset="0%" style="stop-color:#667eea;stop-opacity:1" />
      <stop offset="100%" style="stop-color:#764ba2;stop-opacity:1" />
    </linearGradient>
  </defs>
  
  <!-- Background circle -->
  <circle cx="64" cy="64" r="60" fill="url(#shieldGradient)" stroke="#ffffff" stroke-width="4"/>
  
  <!-- Shield shape -->
  <path d="M64 20 L100 40 L100 80 C100 100 82 110 64 120 C46 110 28 100 28 80 L28 40 Z" 
        fill="#ffffff" opacity="0.9"/>
  
  <!-- Shield border -->
  <path d="M64 20 L100 40 L100 80 C100 100 82 110 64 120 C46 110 28 100 28 80 L28 40 Z" 
        fill="none" stroke="#667eea" stroke-width="2"/>
  
  <!-- Checkmark -->
  <path d="M45 65 L55 75 L85 45" stroke="#4CAF50" stroke-width="6" stroke-linecap="round" stroke-linejoin="round"/>
  
  <!-- Protection dots -->
  <circle cx="40" cy="40" r="3" fill="#FFC107"/>
  <circle cx="88" cy="40" r="3" fill="#FFC107"/>
  <circle cx="40" cy="88" r="3" fill="#FFC107"/>
  <circle cx="88" cy="88" r="3" fill="#FFC107"/>
</svg> 